<svg width="60" height="60" viewBox="0 0 60 60" fill="none" xmlns="http://www.w3.org/2000/svg">
<path d="M29.9965 60.001C13.4442 60.001 0 46.5509 0 29.9975C0 13.4452 13.4442 -0.000190735 29.9965 -0.000190735C46.5499 -0.000190735 60 13.4452 60 29.9975C60 46.5509 46.5499 60.001 29.9965 60.001ZM28.6331 57.0391V43.8438C26.0082 43.9269 23.4185 44.2406 20.9077 44.7611C21.3884 46.5651 21.9423 48.2403 22.5738 49.7137C23.6344 52.1898 24.8909 54.1417 26.1826 55.4164C27.0095 56.2324 27.8222 56.762 28.6331 57.0396V57.0391ZM31.3617 57.0391C32.174 56.7619 32.9899 56.2323 33.8173 55.4159C35.109 54.1411 36.365 52.1892 37.4261 49.7131C38.0585 48.2384 38.6123 46.5613 39.0936 44.7555C36.5806 44.235 33.989 43.9245 31.3618 43.8433L31.3617 57.0391ZM23.4578 56.4811C22.1597 54.9607 21.031 53.0366 20.0662 50.7853C19.3681 49.1566 18.7672 47.3395 18.2508 45.3985C15.3611 46.1906 12.6084 47.2691 10.0661 48.616C13.6161 52.4167 18.2381 55.199 23.4578 56.4811ZM36.5432 56.4798C41.7638 55.1964 46.3885 52.412 49.9383 48.6096C47.3951 47.2631 44.6406 46.1842 41.7499 45.3933C41.233 47.3361 40.6308 49.1552 39.9317 50.7852C38.9674 53.0357 37.8405 54.9598 36.5429 56.4798H36.5432ZM8.04633 46.1924C10.9931 44.5679 14.192 43.2899 17.5493 42.3794C16.8699 38.9938 16.469 35.28 16.3923 31.3625H2.76221C3.03479 36.904 4.95698 42.0063 8.04675 46.193L8.04633 46.1924ZM51.9581 46.1828C55.2971 41.6571 57.2728 36.0612 57.2728 29.9976C57.2728 23.9305 55.2949 18.3341 51.9526 13.8077C49.0058 15.4321 45.807 16.7088 42.4497 17.6192C43.1291 21.0039 43.5313 24.716 43.608 28.6339H50.4518C52.2705 28.6339 52.2705 31.3624 50.4518 31.3624H43.608C43.5313 35.2781 43.13 38.9907 42.451 42.3758C45.8088 43.2849 49.0099 44.5597 51.9581 46.1828H51.9581ZM20.2095 41.7443C22.9499 41.1722 25.7739 40.8352 28.634 40.7507V31.3624H19.12C19.1972 35.0654 19.5802 38.5725 20.2094 41.7443H20.2095ZM39.7926 41.7402C40.4213 38.5696 40.8035 35.064 40.8806 31.3624H31.3631V40.7507C34.2249 40.8338 37.0498 41.1685 39.7926 41.7401L39.7926 41.7402ZM2.76307 28.6337H16.3932C16.4699 24.718 16.8698 21.0078 17.5488 17.6241C14.1902 16.715 10.989 15.4394 8.04033 13.8157C4.9543 17.999 3.0348 23.0959 2.76269 28.6334L2.76307 28.6337ZM19.1213 28.6337H28.6352V19.2491C25.7747 19.166 22.9507 18.8308 20.2094 18.2596C19.5807 21.4288 19.1985 24.9327 19.1213 28.6337L19.1213 28.6337ZM31.3639 28.6337H40.8815C40.8044 24.9308 40.4213 21.4261 39.7921 18.2555C37.0503 18.8281 34.2249 19.165 31.364 19.2491L31.3639 28.6337ZM28.6354 16.1561V2.96201C27.8245 3.23916 27.0117 3.76925 26.1848 4.58521C24.8931 5.85997 23.6366 7.81186 22.576 10.288C21.9436 11.7627 21.3898 13.4389 20.9085 15.2442C23.4201 15.7642 26.0095 16.0747 28.6352 16.1564L28.6354 16.1561ZM31.3639 16.1561C33.9907 16.0735 36.5819 15.7603 39.0944 15.2388C38.6137 13.4353 38.0603 11.761 37.4283 10.2877C36.3672 7.81154 35.1112 5.85966 33.8195 4.5849C32.9922 3.76852 32.1762 3.23884 31.3639 2.9617V16.1561ZM18.2517 14.6074C18.7685 12.6651 19.3694 10.846 20.0684 9.21554C21.0327 6.96455 22.1609 5.03955 23.4586 3.51968C18.2356 4.80227 13.6109 7.58556 10.0611 11.3889C12.6052 12.7358 15.3607 13.8166 18.2522 14.6074H18.2517ZM41.7516 14.601C44.6409 13.8088 47.3945 12.7303 49.9363 11.3835C46.3869 7.5842 41.7644 4.80359 36.5459 3.521C37.8431 5.04099 38.9703 6.96505 39.9346 9.21558C40.6327 10.8443 41.235 12.6606 41.7514 14.601H41.7516Z" fill="black"/>
<path d="M55.909 30C55.909 29.2471 55.2981 28.6362 54.5452 28.6362C53.7923 28.6362 53.1813 29.2471 53.1813 30C53.1813 30.3616 53.3252 30.7086 53.5809 30.9643C53.8365 31.22 54.1835 31.3638 54.5452 31.3638C54.9068 31.3638 55.2538 31.22 55.5095 30.9643C55.7652 30.7086 55.909 30.3616 55.909 30Z" fill="black"/>
</svg>
