<svg width="60" height="61" viewBox="0 0 60 61" fill="none" xmlns="http://www.w3.org/2000/svg">
<path d="M33.1762 22.4851C33.9328 22.4851 34.651 21.8247 34.619 21.0424C34.587 20.2601 33.9842 19.5996 33.1762 19.5996C32.4196 19.5996 31.7014 20.2601 31.7335 21.0424C31.7655 21.8247 32.3618 22.4851 33.1762 22.4851Z" fill="black"/>
<path d="M54.9266 19.3112C54.9523 19.3689 55.1062 19.7152 54.9587 19.3818C54.9972 19.4651 55.0292 19.5549 55.0677 19.6447L55.2985 20.2217C55.446 20.6065 55.5871 20.9976 55.7153 21.3952C55.9654 22.1518 56.1898 22.9213 56.3758 23.6971C56.5617 24.4794 56.722 25.2745 56.8439 26.0696C56.8631 26.185 56.8823 26.3004 56.8952 26.4158C56.8631 26.0824 56.8887 26.3517 56.8952 26.4351C56.9208 26.6274 56.94 26.8198 56.9593 27.0122C57.0042 27.461 57.0426 27.9099 57.0683 28.3587C57.1452 29.7501 57.126 31.1479 57.0042 32.533C56.9785 32.8408 56.9465 33.1486 56.908 33.4628C56.9016 33.5333 56.8887 33.6102 56.8823 33.6808C56.8439 34.0014 56.9336 33.3281 56.8887 33.6487C56.8631 33.8218 56.8375 33.995 56.8118 34.1681C56.7156 34.7708 56.6002 35.3735 56.4656 35.9699C56.1898 37.1753 55.8436 38.3615 55.414 39.5222C55.3178 39.7915 55.2152 40.0544 55.1062 40.3173C55.0613 40.4199 54.8561 40.8687 55.0549 40.4455C54.9844 40.5994 54.9202 40.7597 54.8497 40.9136C54.606 41.4586 54.3496 41.9909 54.0738 42.5167C53.5096 43.5875 52.8812 44.6262 52.1887 45.6201C52.0284 45.851 51.8617 46.0754 51.695 46.3062C51.6116 46.4153 51.5218 46.5243 51.4385 46.6397C51.6757 46.2934 51.5154 46.5371 51.4577 46.614C51.4064 46.6782 51.3551 46.7487 51.3038 46.8128C50.9191 47.2937 50.5215 47.7618 50.1047 48.2171C49.3096 49.0892 48.4697 49.91 47.5719 50.6729C47.3474 50.8653 47.123 51.0512 46.8922 51.2372C46.7703 51.3334 46.6485 51.4295 46.5267 51.5257C46.4562 51.5834 46.3087 51.6668 46.6165 51.4552C46.5267 51.5193 46.4369 51.5898 46.3471 51.6604C45.8727 52.013 45.3918 52.3529 44.8981 52.6735C43.8978 53.3275 42.8526 53.9238 41.7753 54.4496C41.506 54.5778 41.2367 54.7061 40.9674 54.8279C40.8392 54.8856 40.7109 54.9433 40.5763 55.001C40.5378 55.0139 40.2749 55.1293 40.5122 55.0267C40.7558 54.9241 40.4096 55.0652 40.3711 55.0844C39.8133 55.3088 39.2554 55.5204 38.6847 55.7064C37.5049 56.1039 36.3058 56.4181 35.0875 56.6554C34.7989 56.7131 34.5104 56.7644 34.2282 56.8093C34.0808 56.8349 33.9397 56.8541 33.7922 56.8734C33.7024 56.8862 33.6191 56.8926 33.5293 56.9118C33.9654 56.8349 33.6576 56.8926 33.5614 56.9054C32.9266 56.9824 32.2918 57.0401 31.657 57.0786C30.3874 57.1491 29.1049 57.1427 27.8354 57.0465C27.5404 57.0273 27.2455 56.9952 26.9505 56.9696C26.7902 56.9503 26.6299 56.9311 26.4696 56.9119C26.399 56.9054 26.3221 56.8926 26.2516 56.8862C26.7004 56.9247 26.3477 56.899 26.2451 56.8862C25.6232 56.7964 25.0076 56.6874 24.392 56.5528C23.1929 56.2963 22.0131 55.9629 20.8589 55.5589C20.5768 55.4563 20.2947 55.3537 20.0189 55.2447C19.8843 55.1934 19.756 55.1421 19.6214 55.0844C19.5701 55.0652 19.5188 55.0395 19.4611 55.0203C19.32 54.9626 19.3585 54.9754 19.5701 55.0652C19.5188 55.0459 19.4675 55.0203 19.4162 55.001C18.8712 54.7638 18.3325 54.5137 17.8004 54.2444C16.7231 53.693 15.6779 53.0774 14.6712 52.3913C14.4404 52.231 14.2095 52.0707 13.9787 51.904C13.8633 51.8206 13.7543 51.7372 13.6389 51.6539C13.5683 51.6026 13.5042 51.5513 13.4401 51.5C13.2221 51.3397 13.6966 51.6988 13.4657 51.5192C12.9912 51.1473 12.5296 50.7626 12.0743 50.365C11.183 49.5764 10.343 48.73 9.5544 47.8387C9.36846 47.6271 9.18891 47.4155 9.00938 47.1974C8.9132 47.0756 8.8106 46.9602 8.71442 46.8384C8.66954 46.7807 8.62465 46.7294 8.58618 46.6716C8.56053 46.6332 8.32969 46.351 8.48999 46.5498C8.6503 46.7486 8.47076 46.5242 8.45152 46.4921C8.40664 46.4344 8.36816 46.3831 8.32327 46.3254C8.2335 46.2036 8.13733 46.0753 8.04755 45.9535C7.86801 45.7034 7.68847 45.4469 7.51534 45.1904C6.85489 44.2094 6.25221 43.1835 5.72001 42.1254C5.43788 41.5676 5.19421 40.9969 4.93131 40.4262C5.13009 40.843 4.91849 40.4006 4.88002 40.298C4.82872 40.1633 4.77742 40.0351 4.72613 39.9004C4.61071 39.6055 4.5017 39.3105 4.39911 39.0156C3.98873 37.8421 3.66171 36.6495 3.41164 35.4312C3.2898 34.8285 3.18721 34.2258 3.09744 33.6166C3.05256 33.2959 3.14233 33.9692 3.10386 33.6486C3.09744 33.5909 3.09103 33.5332 3.08462 33.4755C3.06538 33.328 3.05256 33.1805 3.03332 33.033C3.00126 32.706 2.9692 32.3854 2.94996 32.0584C2.8602 30.7696 2.85378 29.4808 2.93073 28.1919C2.9692 27.5699 3.03332 26.9543 3.10386 26.3324C3.14233 26.0118 3.05256 26.6851 3.09745 26.3645C3.11027 26.2939 3.11668 26.217 3.12951 26.1464C3.15516 25.9861 3.18081 25.8258 3.20645 25.6719C3.25775 25.3577 3.31546 25.0371 3.37959 24.7229C3.61683 23.5367 3.93102 22.3633 4.32217 21.2155C4.52094 20.6192 4.74537 20.0358 4.98261 19.4522C5.01468 19.3688 5.09803 19.2085 4.93773 19.5612C4.9762 19.4843 5.00185 19.4073 5.04032 19.324C5.09803 19.1957 5.15574 19.0611 5.21346 18.9328C5.3417 18.6507 5.47635 18.3686 5.611 18.0864C6.14963 16.9964 6.75236 15.9447 7.42568 14.938C7.7527 14.4443 8.09254 13.9634 8.45162 13.4953C8.47727 13.4632 8.65039 13.2388 8.49009 13.4376C8.32979 13.6363 8.50933 13.4119 8.53497 13.3863C8.62474 13.2773 8.70811 13.1682 8.79787 13.0592C8.99023 12.822 9.18901 12.5847 9.39419 12.3475C10.1829 11.437 11.0292 10.5714 11.9206 9.76988C12.3566 9.37874 12.8055 8.99401 13.2671 8.62852C13.3312 8.57722 13.4017 8.52592 13.4658 8.47463C13.6518 8.32715 13.3953 8.53234 13.3761 8.54516C13.5043 8.4618 13.6197 8.35921 13.748 8.26944C14.0045 8.07708 14.2674 7.89112 14.5367 7.70517C15.5113 7.0319 16.5244 6.42269 17.576 5.87771C18.1275 5.58917 18.6917 5.31986 19.2624 5.06979C19.3714 5.02491 19.8203 4.85819 19.3907 5.01208C19.5253 4.9672 19.6536 4.90307 19.7882 4.85178C20.0768 4.73636 20.3717 4.62093 20.6667 4.51834C21.8273 4.09514 23.0199 3.74889 24.2318 3.48599C24.8281 3.35134 25.4309 3.24233 26.04 3.15255C26.1875 3.13332 26.3286 3.11408 26.4761 3.08843C26.0016 3.17179 26.5017 3.08843 26.6171 3.07561C26.9377 3.03714 27.2647 3.00508 27.5853 2.97943C29.0217 2.85759 30.4707 2.84478 31.9071 2.94095C32.2982 2.9666 32.6893 2.99866 33.0741 3.04355C33.2664 3.06278 33.4588 3.08843 33.6512 3.11408C34.0423 3.16538 33.337 3.0692 33.7281 3.12691C33.8435 3.14614 33.9589 3.15897 34.0743 3.1782C34.8887 3.30645 35.7031 3.46674 36.5046 3.66552C37.2612 3.85146 38.005 4.06948 38.7424 4.31955C39.1015 4.44138 39.4542 4.56962 39.8068 4.70427C39.98 4.76839 40.1595 4.83892 40.3326 4.90946C40.4352 4.95434 40.5442 4.99282 40.6468 5.03771C40.3134 4.89023 40.6596 5.04412 40.7174 5.06977C41.0893 5.23007 41.4227 5.32625 41.8266 5.21724C42.1601 5.12747 42.5256 4.86458 42.6859 4.5568C43.0129 3.93482 42.9103 2.90252 42.1665 2.58184C38.8963 1.15831 35.4594 0.2991 31.9007 0.0619037C29.0794 -0.124043 26.2195 0.113201 23.456 0.715936C18.4161 1.82523 13.7096 4.30027 9.88194 7.74366C6.06674 11.1742 3.18767 15.6049 1.54617 20.4594C-0.172242 25.5314 -0.441565 31.0586 0.654886 36.2905C1.71929 41.3433 4.15585 46.0689 7.57357 49.9361C10.9719 53.7769 15.3771 56.688 20.2119 58.3744C25.2647 60.1377 30.7919 60.452 36.0301 59.4004C41.1021 58.3808 45.8407 55.9828 49.739 52.5972C53.6119 49.2308 56.5551 44.8577 58.28 40.0291C60.2677 34.4826 60.5242 28.327 59.0879 22.6269C58.6711 20.979 58.1004 19.3888 57.4207 17.837C57.1193 17.1445 56.0485 16.9329 55.4457 17.3176C54.7212 17.7985 54.5993 18.568 54.9264 19.3118L54.9266 19.3112Z" fill="black"/>
<path d="M38.9672 28.2747C39.7239 28.2747 40.442 27.6142 40.41 26.8319C40.3779 26.0496 39.7752 25.3892 38.9672 25.3892C38.2106 25.3892 37.4925 26.0496 37.5245 26.8319C37.5565 27.6142 38.1593 28.2747 38.9672 28.2747Z" fill="black"/>
<path d="M33.1762 22.4851C33.9328 22.4851 34.651 21.8247 34.619 21.0424C34.587 20.2601 33.9842 19.5996 33.1762 19.5996C32.4196 19.5996 31.7014 20.2601 31.7335 21.0424C31.7655 21.8247 32.3618 22.4851 33.1762 22.4851Z" fill="black"/>
<path d="M47.566 26.1783C47.6237 26.4348 47.675 26.6849 47.7199 26.9414C47.7455 27.0824 47.7712 27.2171 47.7904 27.3581C47.7968 27.4159 47.8096 27.48 47.8161 27.5377C47.8225 27.5826 47.8225 27.8198 47.8289 27.6467C47.8417 27.4607 47.8353 27.7044 47.8417 27.7557C47.8481 27.8134 47.8545 27.8775 47.8609 27.9352C47.8738 28.0571 47.8866 28.1789 47.8994 28.3007C47.9251 28.5828 47.9443 28.8714 47.9571 29.1599C47.9956 30.064 47.9764 30.9617 47.893 31.8658C47.8738 32.0582 47.8545 32.2505 47.8289 32.4365C47.7968 32.7058 47.8738 32.1351 47.8353 32.4044C47.8161 32.5199 47.8032 32.6353 47.784 32.7507C47.7199 33.1418 47.6493 33.5266 47.5596 33.9113C47.3864 34.6807 47.1684 35.4437 46.8991 36.1876C46.835 36.3607 46.7709 36.5338 46.7068 36.707C46.6747 36.7839 46.6426 36.8673 46.6106 36.9442C46.5913 36.9955 46.5657 37.0468 46.5465 37.1045C46.4759 37.2776 46.6683 36.8288 46.5913 36.9955C46.431 37.3417 46.2771 37.6944 46.104 38.0343C45.7578 38.7268 45.3666 39.4 44.937 40.0412C44.7254 40.3554 44.5074 40.6696 44.2766 40.971C44.2509 41.003 44.2253 41.0351 44.1996 41.0736C44.1099 41.2018 44.3022 40.9389 44.2958 40.9453C44.2317 41.0159 44.174 41.0992 44.1099 41.1762C43.988 41.3301 43.8598 41.4775 43.7316 41.6314C43.2378 42.2085 42.712 42.7536 42.1606 43.2665C41.8721 43.5358 41.5771 43.7923 41.2758 44.0423C41.2116 44.0936 41.1475 44.1514 41.077 44.2027C41.0449 44.2283 41.0129 44.254 40.9808 44.2796C40.7949 44.4271 41.0578 44.2219 41.0706 44.2091C40.9103 44.3181 40.7564 44.4463 40.5961 44.5617C39.9805 45.0042 39.3393 45.4145 38.6725 45.7801C38.3262 45.9724 37.9736 46.152 37.6145 46.3251C37.4606 46.3956 37.3067 46.4726 37.1528 46.5367C37.1079 46.5559 36.7809 46.697 37.0117 46.6008C37.2426 46.5046 36.8771 46.6521 36.8322 46.6778C36.1141 46.9663 35.3767 47.21 34.6328 47.4087C33.857 47.6139 33.0747 47.755 32.2796 47.8833C32.2668 47.8833 32.6067 47.8448 32.4464 47.8576C32.4015 47.864 32.3566 47.8704 32.3117 47.8768C32.2091 47.8897 32.1065 47.9025 32.0039 47.9089C31.7987 47.9281 31.5935 47.9474 31.3819 47.9602C30.978 47.9858 30.574 48.0051 30.17 48.0115C29.3621 48.0179 28.5542 47.9794 27.7527 47.8832C27.6822 47.8768 27.3487 47.8319 27.5924 47.864C27.8361 47.8961 27.5347 47.8576 27.477 47.8448C27.259 47.8127 27.041 47.7742 26.8294 47.7358C26.4446 47.6652 26.0599 47.5819 25.6816 47.4857C24.9314 47.2997 24.1876 47.0689 23.463 46.7932C23.2899 46.7291 23.1167 46.6585 22.9436 46.588C22.7064 46.4918 23.2257 46.7163 22.9372 46.5816C22.8474 46.5431 22.7577 46.4982 22.6679 46.4598C22.3088 46.293 21.9497 46.1199 21.6035 45.934C20.9302 45.5749 20.2825 45.1773 19.6542 44.7477C19.5067 44.6451 19.3528 44.5361 19.2118 44.4271C19.1348 44.3694 19.0515 44.3117 18.9745 44.2476C18.7886 44.1065 19.2182 44.44 18.9681 44.2412C18.6732 44.0039 18.3846 43.7603 18.0961 43.5102C17.519 42.9972 16.9739 42.4522 16.4673 41.8752C16.2173 41.593 15.9736 41.2981 15.7364 41.0031C15.5825 40.8107 15.9351 41.2724 15.7299 40.9967C15.6787 40.9262 15.6274 40.862 15.5761 40.7915C15.4606 40.6312 15.3452 40.4709 15.2362 40.3106C14.7938 39.6758 14.3962 39.0089 14.0308 38.3229C13.8512 37.983 13.6845 37.6432 13.5242 37.2905C13.4922 37.2136 13.4537 37.1366 13.4216 37.0597C13.2806 36.7391 13.5114 37.2841 13.4152 37.0533C13.3383 36.8673 13.2677 36.6814 13.1972 36.4954C12.9215 35.7708 12.6906 35.0271 12.5047 34.2768C12.4085 33.8793 12.3252 33.4817 12.2482 33.0841C12.2162 32.8982 12.1841 32.7122 12.1584 32.5199C12.152 32.4622 12.1071 32.1608 12.1392 32.4044C12.1713 32.6545 12.1264 32.2698 12.1136 32.1993C12.0238 31.3978 11.9853 30.5898 11.9917 29.7819C11.9981 29.3651 12.0174 28.9419 12.043 28.5251C12.0558 28.3328 12.0751 28.1404 12.0943 27.948C12.1007 27.8583 12.1136 27.7749 12.1264 27.6851C12.1328 27.6402 12.1392 27.5954 12.1456 27.5505C12.1648 27.3645 12.0943 27.8903 12.1328 27.6274C12.3636 26.0693 12.7676 24.5432 13.3575 23.0813C13.3767 23.03 13.4921 22.7543 13.4023 22.9787C13.3126 23.1967 13.4408 22.9018 13.4665 22.8376C13.5498 22.6581 13.6332 22.4786 13.7165 22.299C13.8833 21.9528 14.0564 21.6193 14.2423 21.2859C14.6142 20.6255 15.0246 19.9779 15.467 19.3623C15.576 19.2148 15.6914 19.0738 15.794 18.9263C15.5632 19.2725 15.7363 19.0032 15.8004 18.9199C15.871 18.8301 15.9415 18.7467 16.012 18.657C16.2557 18.3684 16.4994 18.0799 16.7623 17.8042C17.2752 17.2527 17.8267 16.7269 18.3973 16.2332C18.5384 16.1178 18.6794 15.996 18.8205 15.887C18.8975 15.8293 18.9808 15.7716 19.0514 15.701C19.0578 15.6946 18.8013 15.887 18.9231 15.7972C18.9808 15.7588 19.0321 15.7139 19.0898 15.669C19.3912 15.4445 19.7054 15.2265 20.0196 15.0149C20.6544 14.5982 21.3148 14.2134 21.9945 13.8736C22.3344 13.7069 22.7063 13.5786 23.0333 13.3863C23.0141 13.3991 22.6999 13.5209 22.9243 13.4312C22.9628 13.4119 23.0012 13.3991 23.0397 13.3799C23.1167 13.3478 23.2 13.3157 23.277 13.2837C23.4757 13.2067 23.6745 13.1298 23.8797 13.0593C24.6107 12.8028 25.3609 12.5848 26.124 12.418C26.5087 12.3347 26.8934 12.2577 27.2846 12.2C27.3872 12.1808 27.4898 12.168 27.5859 12.1551C27.8552 12.1167 27.2846 12.1936 27.5539 12.1615C27.7591 12.1359 27.9642 12.1167 28.1694 12.0974C29.0735 12.0141 29.9841 11.9948 30.8882 12.0397C31.1511 12.0525 31.4204 12.0718 31.6833 12.091C31.8052 12.1038 31.927 12.1167 32.0488 12.1295C32.1322 12.1359 32.2091 12.1487 32.2925 12.1551C32.3181 12.1551 32.5233 12.1936 32.3438 12.1615C32.1706 12.1295 32.5169 12.1872 32.5682 12.1936C32.7093 12.2128 32.8439 12.2385 32.985 12.2641C33.2607 12.3154 33.5364 12.3667 33.8057 12.4309C34.5431 12.5912 35.4023 12.2128 35.5818 11.4242C35.7486 10.6932 35.3638 9.82112 34.5751 9.64806C30.7664 8.81448 26.7203 9.00044 23.0397 10.3213C19.8721 11.4563 16.9803 13.3222 14.6847 15.7973C12.3892 18.2723 10.6964 21.2989 9.81793 24.5562C8.901 27.9674 8.86893 31.6095 9.70892 35.04C10.5168 38.3422 12.1776 41.4072 14.4347 43.9399C16.679 46.4599 19.5324 48.3643 22.6806 49.5634C25.9764 50.8137 29.548 51.1279 33.0298 50.647C36.3064 50.1918 39.506 48.8901 42.1734 46.9344C44.8793 44.9531 47.1364 42.3754 48.6304 39.3617C50.227 36.1493 51.0028 32.5456 50.8169 28.9613C50.7528 27.7686 50.586 26.5696 50.336 25.4025C50.1757 24.6651 49.278 24.1649 48.5599 24.3958C47.7968 24.6587 47.3929 25.3897 47.566 26.1784L47.566 26.1783Z" fill="black"/>
<path d="M38.9672 28.2747C39.7239 28.2747 40.442 27.6142 40.41 26.8319C40.3779 26.0496 39.7752 25.3892 38.9672 25.3892C38.2106 25.3892 37.4925 26.0496 37.5245 26.8319C37.5565 27.6142 38.1593 28.2747 38.9672 28.2747Z" fill="black"/>
<path d="M37.5756 27.217C37.7423 27.7043 37.877 28.1981 37.9732 28.7047C37.986 28.7816 37.9988 28.8586 38.0117 28.9355C38.0437 29.1022 38.0052 28.8458 37.9988 28.8393C38.0373 28.9355 38.0245 29.083 38.0373 29.1856C38.0629 29.4613 38.0758 29.737 38.0758 30.0128C38.0758 30.2244 38.0694 30.436 38.0565 30.6411C38.0501 30.7309 38.0437 30.8207 38.0373 30.9105C38.0309 30.9553 38.0309 31.0002 38.0245 31.0451C37.9988 31.276 38.0181 31.09 38.0373 30.9682C37.9668 31.3529 37.9026 31.7376 37.8001 32.1224C37.7488 32.3019 37.6975 32.4814 37.6398 32.661C37.582 32.8405 37.4602 33.0393 37.4346 33.2252C37.4346 33.2317 37.5628 32.9367 37.4987 33.0778C37.473 33.1291 37.4538 33.1804 37.4282 33.2317C37.3961 33.3086 37.3576 33.3855 37.3191 33.4625C37.2294 33.642 37.1396 33.8152 37.0434 33.9883C36.8446 34.3345 36.6202 34.6487 36.3958 34.9758C36.3124 35.104 36.4984 34.8411 36.492 34.8539C36.4663 34.886 36.4407 34.918 36.415 34.9501C36.3509 35.0271 36.2932 35.104 36.2291 35.1745C36.1008 35.322 35.9726 35.4695 35.8315 35.6106C35.5686 35.8799 35.2929 36.1364 34.998 36.38C34.9659 36.4057 34.9338 36.4313 34.9018 36.457C34.8056 36.5339 34.7479 36.5083 34.9916 36.3864C34.921 36.4185 34.8505 36.489 34.7864 36.5339C34.6261 36.6493 34.4593 36.7583 34.2926 36.8609C33.9592 37.0725 33.6065 37.2585 33.2475 37.4252C33.1705 37.4573 33.0872 37.4893 33.0166 37.5278C33.0102 37.5342 33.3116 37.4124 33.1641 37.4637C33.1128 37.4829 33.0551 37.5085 33.0038 37.5278C32.8178 37.5983 32.6255 37.6624 32.4331 37.7266C32.0612 37.842 31.6765 37.9317 31.2918 38.0023C31.2084 38.0151 31.1186 38.0279 31.0289 38.0472C30.7788 38.0856 31.3559 38.0087 31.016 38.0472C30.8108 38.0664 30.5992 38.0856 30.3941 38.0921C29.9901 38.1113 29.5861 38.0985 29.1822 38.0664C29.0796 38.06 28.977 38.0472 28.8744 38.0343C28.7141 38.0215 29.0539 38.06 29.0411 38.06C28.9962 38.0536 28.9513 38.0472 28.9128 38.0408C28.6948 38.0087 28.4832 37.9638 28.2716 37.9189C27.8933 37.8356 27.5214 37.7266 27.1559 37.5919C27.0726 37.5598 26.9956 37.5342 26.9187 37.5021C26.5917 37.3739 27.1367 37.6047 26.9059 37.5021C26.7263 37.4188 26.5468 37.3354 26.3672 37.2456C26.0274 37.0725 25.7004 36.8737 25.3862 36.6621C25.3028 36.6044 25.2259 36.5531 25.1425 36.4954C25.1105 36.4698 25.0784 36.4441 25.0399 36.4185C24.9117 36.3351 25.1746 36.5211 25.1618 36.5147C25.0207 36.38 24.854 36.271 24.7065 36.1363C24.4116 35.8734 24.1358 35.5977 23.8729 35.3028C23.7511 35.1681 23.6421 35.0206 23.5203 34.886C23.4241 34.7706 23.6229 35.0206 23.6164 35.0142C23.6036 34.9822 23.5652 34.9437 23.5395 34.9116C23.4754 34.8219 23.4113 34.7321 23.3471 34.6359C23.1355 34.3217 22.9368 33.9947 22.7636 33.6549C22.6803 33.4881 22.6033 33.3214 22.5264 33.1547C22.3917 32.8662 22.6162 33.3791 22.52 33.1483C22.4815 33.0521 22.4494 32.9623 22.411 32.8662C22.2763 32.4878 22.1609 32.0967 22.0775 31.7056C22.0391 31.5196 22.0006 31.3337 21.9685 31.1477C21.9621 31.1028 21.9557 31.058 21.9493 31.0195C21.9236 30.8592 21.9749 31.199 21.9685 31.1862C21.9621 31.0708 21.9429 30.949 21.9301 30.8335C21.898 30.4296 21.8852 30.0256 21.9044 29.6216C21.9108 29.4293 21.9236 29.2369 21.9493 29.0445C21.9557 28.9997 21.9621 28.9548 21.9621 28.9099C21.9814 28.7175 21.9172 29.2241 21.9429 29.0317C21.9621 28.9291 21.9749 28.8265 21.9942 28.7304C22.0647 28.3456 22.1545 27.9673 22.2699 27.589C22.3276 27.4095 22.3853 27.2363 22.4494 27.0632C22.4687 27.0183 22.6033 26.6849 22.5007 26.9157C22.4046 27.1466 22.5584 26.7875 22.5841 26.7362C22.7444 26.39 22.9239 26.0565 23.1291 25.7295C23.2253 25.5756 23.3279 25.4217 23.4305 25.2742C23.4818 25.2037 23.5651 25.1139 23.6036 25.037C23.61 25.0306 23.4113 25.2807 23.5074 25.1653C23.5459 25.1204 23.578 25.0755 23.61 25.037C23.8473 24.742 24.1038 24.4663 24.3795 24.2034C24.5077 24.0752 24.6424 23.9534 24.7834 23.8379C24.8604 23.7738 24.9309 23.7097 25.0079 23.652C25.0399 23.6263 25.072 23.6007 25.1041 23.575C25.2387 23.466 24.8027 23.7931 25.0463 23.6199C25.3541 23.4019 25.6683 23.1903 26.0017 22.9979C26.162 22.9082 26.3224 22.8184 26.4891 22.7415C26.566 22.703 26.6429 22.6645 26.7199 22.6325C26.7712 22.6068 26.8225 22.5876 26.8738 22.5619C27.0533 22.4786 26.8161 22.6004 26.7648 22.6068C26.9379 22.5812 27.1174 22.4657 27.2842 22.4145C27.4765 22.3503 27.6689 22.2926 27.8613 22.2413C28.2396 22.1387 28.6243 22.0746 29.0154 22.0041C28.5794 22.081 28.9193 22.0169 29.0283 22.0105C29.1309 21.9977 29.2335 21.9913 29.3361 21.9848C29.5477 21.972 29.7528 21.9656 29.9644 21.9656C30.2209 21.9656 30.4774 21.9784 30.7339 21.9977C30.8493 22.0041 30.9647 22.0233 31.0866 22.0297C31.2597 22.049 30.9968 22.0169 30.9904 22.0169C31.0609 22.0041 31.202 22.049 31.2789 22.0618C31.7855 22.1516 32.2792 22.2862 32.7666 22.4593C33.4783 22.7094 34.3761 22.1772 34.5427 21.4526C34.7286 20.6511 34.299 19.9457 33.536 19.6765C29.6694 18.33 25.2708 19.3431 22.334 22.1708C19.5897 24.819 18.4612 28.7817 19.2819 32.4943C20.0898 36.1428 22.8342 39.1052 26.316 40.3812C29.9388 41.7022 34.0105 40.8685 36.9729 38.4704C40.0443 35.9825 41.3972 31.9301 40.7497 28.0764C40.6599 27.5314 40.5188 26.9928 40.3329 26.4734C40.0828 25.7617 39.3326 25.2166 38.5568 25.4667C37.8771 25.6719 37.3064 26.4542 37.5757 27.2172L37.5756 27.217Z" fill="black"/>
<path d="M57.5367 7.4493L45.873 19.113C46.2128 18.9719 46.5527 18.8308 46.8925 18.6898C44.8599 18.6769 42.8272 18.6577 40.7946 18.6449C40.506 18.6449 40.2175 18.6385 39.9225 18.6385L41.3653 20.0812C41.3525 18.0486 41.3332 16.0159 41.3204 13.9833C41.3204 13.6948 41.314 13.4062 41.314 13.1113C41.1729 13.4511 41.0319 13.7909 40.8908 14.1308C42.2117 12.8098 43.5326 11.489 44.847 10.1745C46.9309 8.09065 49.0214 6.0002 51.1053 3.91632C51.5862 3.4354 52.0735 2.94809 52.5544 2.46722C51.7336 2.12739 50.9129 1.78754 50.0921 1.4477C50.1049 3.48035 50.1242 5.51299 50.137 7.54564C50.137 7.83418 50.1434 8.12273 50.1434 8.41768C50.1498 9.19996 50.7974 9.85399 51.5862 9.86044C53.6188 9.87327 55.6515 9.8925 57.6841 9.90533C57.9726 9.90533 58.2612 9.91174 58.5561 9.91174C59.3128 9.91815 60.0309 9.24488 59.9989 8.46898C59.9668 7.68029 59.3641 7.03267 58.5561 7.02622C56.5235 7.01339 54.4909 6.99416 52.4582 6.98133C52.1697 6.98133 51.8811 6.97492 51.5862 6.97492C52.0671 7.45583 52.548 7.93674 53.0289 8.41768C53.0161 6.38504 52.9969 4.35239 52.984 2.31975C52.984 2.03121 52.9776 1.74265 52.9776 1.4477C52.9712 0.203795 51.4003 -0.463122 50.5154 0.428177L43.6673 7.27628C42.34 8.60355 41.0126 9.93093 39.6789 11.2647C39.4096 11.534 39.1275 11.7969 38.8646 12.079C38.3003 12.6946 38.4285 13.5025 38.4285 14.2655C38.4414 16.1571 38.4542 18.055 38.467 19.9466V20.0812C38.4734 20.8635 39.121 21.5175 39.9098 21.524C41.6154 21.5368 43.321 21.5496 45.033 21.5625C45.6422 21.5689 46.2641 21.5945 46.8732 21.5753C47.5914 21.5496 47.9697 21.0816 48.4186 20.6263L52.112 16.9329C53.6893 15.3555 55.2604 13.7845 56.8377 12.2072C57.729 11.3159 58.646 10.4438 59.518 9.52694C59.5308 9.51411 59.5436 9.50129 59.5628 9.48205C60.095 8.94984 60.1399 7.96882 59.5628 7.44296C58.9986 6.92358 58.1073 6.87869 57.5366 7.44937L57.5367 7.4493Z" fill="#FF3D00"/>
<path d="M31.1056 30.9438C32.2085 29.8409 33.3178 28.7316 34.4207 27.6288L39.7298 22.3196C40.1338 21.9156 40.5378 21.5117 40.9417 21.1077C41.474 20.5755 41.5188 19.5945 40.9417 19.0686C40.3646 18.5427 39.4734 18.4979 38.9026 19.0686C37.7998 20.1715 36.6905 21.2808 35.5876 22.3836L30.2784 27.6928C29.8745 28.0968 29.4705 28.5007 29.0665 28.9047C28.5343 29.4369 28.4895 30.4179 29.0665 30.9438C29.6436 31.476 30.5349 31.5145 31.1056 30.9438Z" fill="#FF3D00"/>
</svg>
