<svg width="61" height="62" viewBox="0 0 61 62" fill="none" xmlns="http://www.w3.org/2000/svg">
<path d="M7.60913 37.4312C7.34083 37.4354 7.07902 37.5171 6.8562 37.667L0.618775 41.8277C0.233488 42.0839 0.00139037 42.5156 0 42.9784V59.6142C0 59.9823 0.145763 60.3351 0.405716 60.5955C0.665668 60.8554 1.01845 61.0021 1.38657 61.0021H26.3432C26.7108 61.0021 27.0636 60.8554 27.324 60.5955C27.584 60.3351 27.7297 59.9823 27.7297 59.6142V42.9784C27.7279 42.5151 27.4953 42.0834 27.1096 41.8277L20.8721 37.667C20.4061 37.356 19.7984 37.356 19.3324 37.667L13.8613 41.3105L8.3917 37.667C8.16053 37.5115 7.88757 37.4293 7.60906 37.4312H7.60913ZM7.62399 40.4856L13.0936 44.1291C13.5588 44.4383 14.1641 44.4383 14.6292 44.1291L20.0988 40.4856L24.9553 43.7202V58.2276H19.4085V54.0669H16.6354V58.2276H11.0886V54.0669H8.31454V58.2276H2.77289V43.7154L7.62399 40.4856Z" fill="black"/>
<path d="M13.8605 20.1201C9.29186 20.1201 5.56055 23.8513 5.56055 28.4201C5.56055 32.9887 9.29174 36.7251 13.8605 36.7251C18.4291 36.7251 22.1655 32.9888 22.1655 28.4201C22.1655 23.8514 18.4292 20.1201 13.8605 20.1201ZM13.8605 22.8937C16.9307 22.8937 19.3924 25.3503 19.3924 28.4205C19.3924 31.4908 16.9307 33.9524 13.8605 33.9524C10.7903 33.9524 8.33369 31.4908 8.33369 28.4205C8.33369 25.3503 10.7903 22.8937 13.8605 22.8937Z" fill="black"/>
<path d="M40.8787 37.4312C40.6109 37.4359 40.35 37.5176 40.1272 37.667L33.8883 41.8277C33.503 42.0839 33.2709 42.5156 33.2695 42.9785V59.6142C33.2695 59.9823 33.4153 60.3351 33.6752 60.5955C33.9352 60.8555 34.288 61.0022 34.6561 61.0022H59.6127C59.9808 61.0022 60.3336 60.8555 60.5936 60.5955C60.8535 60.3351 60.9993 59.9823 60.9993 59.6142V42.9785C60.9979 42.5156 60.7658 42.0839 60.3805 41.8277L54.1431 37.667C53.6779 37.3579 53.0726 37.3579 52.6075 37.667L47.1379 41.3105L41.6668 37.667C41.4338 37.5106 41.159 37.4284 40.8786 37.4312H40.8787ZM40.8949 40.4856L46.3646 44.1291C46.8311 44.4406 47.4392 44.4406 47.9058 44.1291L53.3754 40.4856L58.2262 43.7202V58.2276H52.6795V54.067H49.9054V58.2276H44.3637V54.067H41.5906V58.2276H36.0439V43.7155L40.8949 40.4856Z" fill="black"/>
<path d="M47.139 20.1201C42.5704 20.1201 38.834 23.8513 38.834 28.4201C38.834 32.9887 42.5703 36.7251 47.139 36.7251C51.7078 36.7251 55.439 32.9888 55.439 28.4201C55.439 23.8514 51.7078 20.1201 47.139 20.1201ZM47.139 22.8937C50.2093 22.8937 52.6658 25.3503 52.6658 28.4205C52.6658 31.4908 50.2093 33.9524 47.139 33.9524C44.0688 33.9524 41.6071 31.4908 41.6071 28.4205C41.6071 25.3503 44.0688 22.8937 47.139 22.8937Z" fill="black"/>
<path d="M30.4752 0C30.0207 0.00835567 29.5988 0.239061 29.3462 0.617385L21.0278 13.0951C20.7441 13.5208 20.7177 14.0676 20.9591 14.5184C21.2004 14.9691 21.6702 15.2504 22.1813 15.2509H24.954V26.342H27.7266V13.8643H27.7271C27.7266 13.0989 27.106 12.4778 26.3405 12.4778H24.7715L30.4997 3.88584L36.228 12.4778H34.659C33.8935 12.4778 33.2724 13.0989 33.2724 13.8643V36.0473H36.0451V15.2511H38.8182C39.3293 15.2507 39.7991 14.9694 40.0404 14.5186C40.2818 14.0679 40.2554 13.5211 39.9717 13.0953L31.6533 0.617623C31.3915 0.224908 30.9477 -0.00765312 30.4756 0.00023754L30.4752 0Z" fill="#FF3D00"/>
<path d="M24.9551 29.1167V31.8903H27.7287V29.1167H24.9551Z" fill="#FF3D00"/>
</svg>
