<svg width="60" height="58" viewBox="0 0 60 58" fill="none" xmlns="http://www.w3.org/2000/svg">
<path d="M28.9439 55.1762C25.9472 55.1762 22.7024 49.2511 21.2382 39.8929C23.6271 40.124 26.1957 40.2527 28.9439 40.2527V37.487C26.235 37.4911 23.5284 37.3454 20.8355 37.0504C20.2539 31.6631 20.2539 26.2292 20.8355 20.8419C26.2223 20.2608 31.6566 20.2608 37.0439 20.8419C37.3389 23.5347 37.4846 26.2417 37.4806 28.9504H40.2547C40.2547 26.1848 40.1264 23.6162 39.8949 21.2446C49.2535 22.7258 55.1782 25.971 55.1782 28.9504H55.1786C55.1778 30.7452 54.9941 32.5355 54.6307 34.2931L57.3449 34.8581V34.8585C58.6399 28.6141 57.8386 22.1176 55.0653 16.375C52.2923 10.6323 47.7023 5.96508 42.0063 3.09636C36.311 0.228258 29.828 -0.681052 23.5632 0.509536C17.2985 1.70054 11.6014 4.92472 7.35578 9.68313C3.11019 14.4411 0.552481 20.467 0.0798512 26.8261C-0.393234 33.1854 1.24537 39.5234 4.74109 44.8568C8.23681 50.1903 13.3942 54.2215 19.4142 56.3255C25.4343 58.4296 31.98 58.4886 38.0365 56.4939L37.1802 53.8654H37.1806C34.5226 54.7391 31.7415 55.1815 28.9439 55.1754L28.9439 55.1762ZM54.6298 23.5819C51.5987 21.2703 46.5214 19.3007 39.5517 18.325C38.5586 11.3554 36.6063 6.27818 34.2948 3.2468C39.2927 4.29897 43.8762 6.78261 47.4874 10.3949C51.0981 14.0072 53.5801 18.5919 54.6302 23.5906L54.6298 23.5819ZM28.9439 2.69895C31.9407 2.69895 35.1855 8.62402 36.6497 17.9822C34.2608 17.7512 31.6922 17.6225 28.9439 17.6225C26.1957 17.6225 23.6097 17.7508 21.2382 17.9822C22.702 8.62371 25.9472 2.70724 28.9439 2.70724V2.69895ZM23.5927 3.24691C21.2812 6.27808 19.3115 11.3554 18.3358 18.3251C11.3662 19.3182 6.28901 21.2705 3.25763 23.582C4.3098 18.5877 6.79178 14.0074 10.4008 10.3987C14.0095 6.78967 18.5898 4.3081 23.5841 3.25551L23.5927 3.24691ZM17.993 21.2269C17.7619 23.6159 17.6332 26.1845 17.6332 28.9327C17.6332 31.6809 17.7615 34.2669 17.993 36.6385C8.63444 35.1573 2.70968 31.9121 2.70968 28.9327C2.70968 25.9529 8.62584 22.6996 17.993 21.218V21.2269ZM3.25773 34.2921C6.2889 36.6037 11.3662 38.5733 18.3359 39.5491C19.329 46.5186 21.2813 51.5958 23.5928 54.6272C18.5953 53.5766 14.0121 51.0946 10.4013 47.4836C6.79054 43.8729 4.30856 39.2893 3.25804 34.292L3.25773 34.2921Z" fill="black"/>
<path d="M46.7981 45.0526L45.9347 45.1767L45.6155 45.9885L42.9266 52.8274L38.4228 36.1524L54.8423 43.8964L46.7981 45.0526Z" stroke="#FF3D00" stroke-width="3"/>
</svg>
