<svg width="62" height="51" viewBox="0 0 62 51" fill="none" xmlns="http://www.w3.org/2000/svg">
<path d="M35.2266 36.6356C35.2266 37.414 34.5956 38.045 33.8172 38.045C33.0392 38.045 32.4082 37.414 32.4082 36.6356C32.4082 35.8576 33.0392 35.2266 33.8172 35.2266C34.5957 35.2266 35.2266 35.8575 35.2266 36.6356Z" fill="black"/>
<path d="M11.2731 45.09C11.2731 45.868 10.6426 46.4991 9.86411 46.4991C9.0861 46.4991 8.45508 45.8681 8.45508 45.09C8.45508 44.3116 9.08605 43.6807 9.86411 43.6807C10.6425 43.6807 11.2731 44.3116 11.2731 45.09Z" fill="#FF3D00"/>
<path d="M57.7721 0H9.8637C7.46823 0 5.63672 1.83151 5.63672 4.22698V18.3173C5.63672 19.1628 6.20022 19.7263 7.04575 19.7263C7.89128 19.7263 8.45478 19.1628 8.45478 18.3173V4.22698C8.45478 3.38151 9.01828 2.81795 9.86381 2.81795H57.7722C58.6177 2.81795 59.1812 3.38145 59.1812 4.22698V38.0439C59.1812 38.8894 58.6177 39.453 57.7722 39.453L23.9552 39.4534C23.1098 39.4534 22.5462 40.0169 22.5462 40.8624C22.5462 41.708 23.1097 42.2715 23.9552 42.2715H26.7732V46.4989C26.7732 47.3444 26.2097 47.9079 25.3641 47.9079H23.9551C23.1096 47.9079 22.5461 48.4714 22.5461 49.3169C22.5461 50.1625 23.1096 50.726 23.9551 50.726H43.6818C44.5272 50.726 45.0908 50.1625 45.0908 49.3169C45.0908 48.4714 44.5273 47.9079 43.6818 47.9079H42.2727C41.4273 47.9079 40.8637 47.3444 40.8637 46.4989V42.2715H57.7727C60.1682 42.2715 62.0002 40.4395 62.0002 38.044L61.9997 4.22708C61.9997 1.83161 60.1678 0.000100515 57.7723 0.000100515L57.7721 0ZM38.0454 46.499C38.0454 47.0625 38.1864 47.4855 38.3274 47.908H29.3096C29.4506 47.4855 29.5915 47.0626 29.5915 46.499V42.2716H38.0458L38.0454 46.499Z" fill="black"/>
<path d="M56.3623 32.409C56.3623 31.5636 55.7988 31 54.9533 31H23.954C23.1085 31 22.5449 31.5635 22.5449 32.409C22.5449 33.2546 23.1084 33.8181 23.954 33.8181H54.9533C55.7988 33.8181 56.3623 33.2546 56.3623 32.409Z" fill="black"/>
<path d="M15.5001 22.5451H4.22742C1.83195 22.5451 0 24.377 0 26.7725V46.4992C0 48.8946 1.83195 50.7266 4.22742 50.7266H15.5001C17.8956 50.7266 19.7275 48.8946 19.7275 46.4992V26.7714C19.7275 24.3759 17.8956 22.5444 15.5001 22.5444V22.5451ZM16.9091 46.4987C16.9091 47.3442 16.3456 47.9078 15.5001 47.9078H4.22742C3.38195 47.9078 2.81839 47.3443 2.81839 46.4987L2.81796 26.7721C2.81796 25.9266 3.38146 25.363 4.22699 25.363H15.4997C16.3452 25.363 16.9087 25.9266 16.9087 26.7721L16.9091 46.4987Z" fill="#FF3D00"/>
</svg>
