<svg width="56" height="59" viewBox="0 0 56 59" fill="none" xmlns="http://www.w3.org/2000/svg">
<path d="M27.997 16.1809C27.2609 16.1809 26.6635 16.7778 26.6635 17.5144V32.1799H17.3329V25.5168C17.3329 24.7806 16.736 24.1832 15.9994 24.1832L4.00145 24.1837C3.26439 24.1832 2.66703 24.7801 2.66657 25.5172V56.1818H0V58.8502H56V56.1818H53.3321V29.5184C53.3325 28.7814 52.7356 28.184 51.9986 28.1835H41.3344V17.5142C41.3344 16.778 40.7375 16.1807 40.0009 16.1807L27.997 16.1809ZM29.3319 18.8493H38.6679V41.516H41.3344L41.3349 30.8516H50.6655V56.1813H41.3349V49.5182H38.6683V56.1813H29.332L29.3319 18.8493ZM5.33599 26.8508H14.6666V56.1817H5.33599V26.8508ZM17.334 34.8484H26.665V56.1825L17.334 56.1821V34.8484Z" fill="black"/>
<path d="M34.0029 0C32.1774 0 30.6654 1.50677 30.6654 3.33218C30.6654 3.69692 30.7404 4.04201 30.852 4.37239L22.0366 12.306C21.6161 12.1127 21.1536 11.9976 20.6652 11.9976C19.7366 11.9976 18.8937 12.3922 18.2866 13.0172L13.3226 11.1565C13.2288 9.41223 11.7668 8.00157 10.0012 8.00157C8.17609 8.00157 6.66406 9.50834 6.66406 11.3338C6.66406 13.1588 8.17609 14.6655 10.0012 14.6655C10.9298 14.6655 11.7731 14.2726 12.3802 13.6485L17.3423 15.5132C17.437 17.257 18.9004 18.6669 20.6652 18.6669C22.4907 18.6669 24.0027 17.1601 24.0027 15.3352C24.0027 14.9695 23.9268 14.6226 23.8152 14.2918L32.6332 6.36082C33.0533 6.55368 33.5149 6.66797 34.0028 6.66797C34.7417 6.66797 35.4212 6.41216 35.9769 5.99608L44.6879 10.973C44.6749 11.0913 44.6669 11.2118 44.6669 11.3337C44.6669 13.1588 46.1727 14.6654 47.9978 14.6654C49.8233 14.6654 51.3354 13.1586 51.3354 11.3337C51.3354 9.50817 49.8233 8.00151 47.9978 8.00151C47.2603 8.00151 46.5817 8.25554 46.0263 8.66939L37.3142 3.69032C37.3271 3.572 37.3338 3.45326 37.3338 3.33227C37.3338 1.50675 35.8279 9.13366e-05 34.0029 9.13366e-05L34.0029 0ZM34.0029 2.66657C34.3869 2.66657 34.6668 2.94827 34.6668 3.33221C34.6668 3.71615 34.3869 4.00142 34.0029 4.00142C33.619 4.00142 33.3324 3.71615 33.3324 3.33221C33.3324 2.94827 33.619 2.66657 34.0029 2.66657ZM10.0013 10.6641C10.3852 10.6641 10.6652 10.9498 10.6652 11.3338C10.6652 11.7177 10.3852 11.9976 10.0013 11.9976C9.61736 11.9976 9.33208 11.7177 9.33208 11.3338C9.33208 10.9498 9.61736 10.6641 10.0013 10.6641ZM47.9975 10.6641C48.3814 10.6641 48.6681 10.9498 48.6681 11.3338C48.6681 11.7177 48.3814 11.9976 47.9975 11.9976C47.6136 11.9976 47.3337 11.7177 47.3337 11.3338C47.3337 10.9498 47.6136 10.6641 47.9975 10.6641ZM20.6644 14.6656C21.0488 14.6656 21.334 14.9508 21.334 15.3352C21.334 15.7192 21.0488 15.9991 20.6644 15.9991C20.2804 15.9991 20.0005 15.7192 20.0005 15.3352C20.0005 14.9508 20.2804 14.6656 20.6644 14.6656Z" fill="#FF3D00"/>
<path d="M38.668 44.1841V46.8516H41.3354V44.1841H38.668Z" fill="black"/>
</svg>
