<svg width="60" height="60" viewBox="0 0 60 60" fill="none" xmlns="http://www.w3.org/2000/svg">
<path d="M59.6272 35.4409C59.361 35.1872 58.9902 35.0683 58.6281 35.122C55.0105 35.645 51.9698 35.09 47.1309 30.825C46.6775 30.4253 45.9979 30.4253 45.544 30.825C44.7427 31.5313 43.969 32.1532 43.198 32.7087C42.0383 31.0859 40.2481 29.9413 38.1616 29.5504V16.2834C38.1616 7.5457 31.6811 0 23.2083 0C14.9569 0 8.24485 7.3047 8.24485 16.2834V29.5504C5.3571 30.0912 2.98407 32.1434 2.18677 34.8153C2.17169 34.865 2.1606 34.9156 2.15172 34.9666L0.0154934 48.1303C-0.04085 48.4777 0.0580845 48.8321 0.28612 49.1001C0.514156 49.368 0.848667 49.5224 1.20005 49.5224H35.1669C37.3225 54.1037 41.0941 57.8448 45.8624 59.9015C46.0142 59.9672 46.1761 60 46.3376 60C46.4995 60 46.661 59.9672 46.8127 59.902C53.6947 56.9332 58.5064 50.4602 59.373 42.9848L59.9945 36.4237C60.0296 36.0572 59.8939 35.6947 59.6272 35.4409ZM10.6435 16.2831C10.6435 8.62795 16.2797 2.39942 23.2072 2.39942C29.9286 2.39942 35.7606 8.42524 35.7606 16.2831V29.1595C34.0973 28.9115 31.9204 28.6453 29.8321 28.4723V25.0493C32.5407 22.3152 33.9843 18.0276 33.9843 14.0034C33.9843 12.7395 33.8588 11.4978 33.6112 10.3138C33.4794 9.68694 32.8756 9.26772 32.2469 9.37463C29.9403 9.7384 27.5584 8.65418 26.1551 7.04342C25.9519 6.79277 25.656 6.63483 25.3348 6.60511C25.0185 6.57406 24.6933 6.67609 24.4475 6.88459C22.0127 8.95097 18.9613 9.72914 16.9196 10.0077C16.8682 10.0077 16.8172 10.0113 16.7661 10.0175C15.2959 10.2074 14.2852 10.1741 13.8868 10.1532C13.2679 10.1279 12.731 10.56 12.6375 11.1682C12.4911 12.1163 12.4196 13.0439 12.4196 14.0035C12.4196 17.9988 13.8747 22.3263 16.5833 25.0502V28.4719C14.4857 28.6445 12.2679 28.9169 10.6437 29.1591L10.6435 16.2831ZM23.2197 32.9515C20.8457 32.9515 18.9832 31.0373 18.9832 28.7278V26.8907C20.3075 27.6227 21.8408 27.9958 23.2072 27.9958C24.5634 27.9958 26.0959 27.6289 27.4312 26.8907C27.4183 28.5073 27.59 29.5573 26.8806 30.8191C26.1548 32.11 24.7813 32.9515 23.2197 32.9515ZM14.8831 12.5638C15.4425 12.5522 16.1869 12.5123 16.9912 12.4081C17.0454 12.4081 17.099 12.4045 17.1523 12.397C19.3568 12.098 22.4322 11.3318 25.123 9.39979C26.914 10.9928 29.1504 11.8997 31.4397 11.8478C31.535 12.5505 31.5834 13.2722 31.5834 14.0037C31.5834 17.527 30.3834 21.3014 27.8141 23.661C22.4663 28.6331 14.82 23.4028 14.82 14.0037C14.8195 13.5175 14.8405 13.0403 14.8831 12.5638ZM2.60903 47.1226L4.50562 35.4319C5.24341 33.0962 7.18882 32.0616 9.63863 31.7462C11.7992 31.3896 14.1195 31.0954 16.9412 30.8683C17.0441 30.9938 18.3209 35.3503 23.2192 35.3503C26.5147 35.3503 28.2759 33.3775 29.4729 30.8683C33.8003 31.2183 36.2697 31.6801 37.6436 31.8886C39.0633 32.1331 40.3259 32.9045 41.152 33.975C39.0539 35.0628 36.8375 35.525 34.0456 35.1218C33.6881 35.0703 33.3132 35.187 33.0465 35.4408C32.7799 35.6945 32.6446 36.0565 32.6792 36.423C33.2626 41.4173 33.0518 43.5959 34.2089 47.1223L2.60903 47.1226ZM56.9853 42.7329C56.2399 49.1615 52.1783 54.7677 46.3363 57.4854C41.9326 55.4372 39.0005 52.1216 37.0378 47.8263C35.3416 43.8177 35.6616 41.03 35.2064 37.6501C39.6004 37.9056 42.9299 36.1746 46.3358 33.3096C49.4822 35.9559 52.523 37.674 56.6187 37.6749C56.896 37.6749 57.1786 37.6665 57.4661 37.6505L56.9853 42.7329Z" fill="black"/>
<path d="M51.1529 42.1768L44.3155 46.2981L43.1757 44.8158C42.7826 44.3036 42.0283 44.1928 41.4908 44.5709C40.9548 44.9481 40.84 45.6705 41.235 46.1836L43.039 48.5302C43.2739 48.8363 43.6384 49 44.0101 49C44.2302 49 44.4528 48.9425 44.6515 48.8226L52.4365 44.1299C52.9998 43.7901 53.1694 43.0781 52.8144 42.5395C52.4609 41.999 51.717 41.8389 51.1529 42.1769L51.1529 42.1768Z" fill="#FF3D00"/>
</svg>
