<svg width="25" height="25" viewBox="0 0 25 25" fill="none" xmlns="http://www.w3.org/2000/svg">
<path d="M16.7101 9.30007C16.5205 9.10822 16.2652 9 15.9978 9C15.7304 9 15.4751 9.10576 15.2855 9.30007L11.0722 13.5404L9.72285 12.1655C9.33386 11.772 8.69444 11.767 8.30059 12.1581C7.9043 12.5492 7.89944 13.1961 8.28844 13.5994L10.3501 15.6999C10.5397 15.8918 10.795 16 11.0649 16C11.3323 16 11.5852 15.8942 11.7748 15.7024L16.7055 10.7439C17.0945 10.3503 17.0994 9.70344 16.7128 9.305L16.7101 9.30007Z" fill="#FF3D00"/>
<path d="M24.0175 7.63942C23.3866 6.15095 22.4839 4.81454 21.337 3.66513C20.1874 2.51824 18.8509 1.61567 17.3623 0.984864C15.8213 0.331631 14.1856 0 12.5 0C5.60779 0.00249325 0 5.61001 0 12.5011C0 19.3923 5.60779 25 12.5 25C19.3922 25 25 19.3927 25 12.5011C25 10.8157 24.6709 9.18009 24.0176 7.63928L24.0175 7.63942ZM12.5 22.933C6.74772 22.933 2.06734 18.2531 2.06734 12.5013C2.06734 6.74948 6.74772 2.06953 12.5 2.06953C18.2524 2.06953 22.9327 6.74948 22.9327 12.5013C22.9327 18.2531 18.2524 22.933 12.5 22.933Z" fill="#FF3D00"/>
</svg>
